<svg xmlns="http://www.w3.org/2000/svg" width="15.244" height="19.257" viewBox="0 0 15.244 19.257">
  <g id="collection_icon" transform="translate(1 1)">
    <path id="Path_39" data-name="Path 39" d="M36.346,32.627a.586.586,0,0,1-.2-.05L30.1,28.594l-6.074,3.983a.351.351,0,0,1-.349.025.3.3,0,0,1-.174-.3V17.416A2.024,2.024,0,0,1,25.516,15.4h9.211a2.024,2.024,0,0,1,2.016,2.016V32.279a.345.345,0,0,1-.174.3A.924.924,0,0,1,36.346,32.627Z" transform="translate(-23.5 -15.4)" fill="#f1a7e3" stroke="#454545" stroke-width="2"/>
  </g>
</svg>
