<svg xmlns="http://www.w3.org/2000/svg" xmlns:xlink="http://www.w3.org/1999/xlink" width="30" height="30" viewBox="0 0 30 30">
  <defs>
    <clipPath id="clip-path">
      <rect id="icon_mask" width="30" height="30" fill="#fff"/>
    </clipPath>
  </defs>
  <g id="icon" clip-path="url(#clip-path)">
    <g id="icon-2" data-name="icon" transform="translate(1.412 1.692)">
      <g id="icon-3" data-name="icon" transform="translate(2.857 3.614)">
        <path id="Path_97" data-name="Path 97" d="M2694.389,2240.547a2.8,2.8,0,0,0-2.8,2.8v6.666a2.99,2.99,0,1,0,5.98,0v-2.242a1.745,1.745,0,0,0,1.744-1.744v-.748h2.492v.748a1.745,1.745,0,0,0,1.744,1.744v2.243a2.99,2.99,0,1,0,5.981,0v-6.666a2.8,2.8,0,0,0-2.8-2.8h-12.335Z" transform="translate(-2690.085 -2233.072)" fill="#b9bdc6"/>
        <path id="Path_98" data-name="Path 98" d="M2852.309,2266.188a.575.575,0,0,1-.407.981h-.719v.719a.575.575,0,0,1-1.15,0v-.719h-.719a.575.575,0,0,1,0-1.15h.719v-.719a.575.575,0,1,1,1.15,0v.719h.719A.574.574,0,0,1,2852.309,2266.188Z" transform="translate(-2834.281 -2255.257)" fill="#68ca44"/>
        <path id="Path_99" data-name="Path 99" d="M2743.709,2264.725a.748.748,0,1,1-.748.748A.748.748,0,0,1,2743.709,2264.725Z" transform="translate(-2737.225 -2255.256)" fill="#fac600"/>
        <path id="Path_100" data-name="Path 100" d="M2713.487,2294.946a.748.748,0,1,1-.748.747A.748.748,0,0,1,2713.487,2294.946Z" transform="translate(-2709.495 -2282.985)" fill="#68ca44"/>
        <path id="Path_101" data-name="Path 101" d="M2743.709,2294.946a.748.748,0,1,1-.748.747A.748.748,0,0,1,2743.709,2294.946Z" transform="translate(-2737.225 -2282.985)" fill="#fb2b3a"/>
        <path id="Path_102" data-name="Path 102" d="M2713.487,2264.725a.748.748,0,1,1-.748.748A.748.748,0,0,1,2713.487,2264.725Z" transform="translate(-2709.495 -2255.256)" fill="#fb2b3a"/>
        <path id="Path_103" data-name="Path 103" d="M2895.566,2180.1a1.5,1.5,0,1,1-1.495,1.5A1.5,1.5,0,0,1,2895.566,2180.1Z" transform="translate(-2875.875 -2177.611)" fill="#6499f3"/>
        <rect id="Rectangle_25" data-name="Rectangle 25" width="5.981" height="0.997" transform="translate(13.462 15.699)" fill="#d7deed"/>
        <path id="Path_104" data-name="Path 104" d="M2777.67,2240.547v1.5h-4.486v-1.5h4.486Z" transform="translate(-2764.955 -2233.071)" fill="#c9f3ff"/>
        <path id="Path_105" data-name="Path 105" d="M2792.811,2223.161v.748h-1.5v-.748a.748.748,0,0,1,1.5,0Z" transform="translate(-2781.592 -2216.433)" fill="#414a56"/>
        <rect id="Rectangle_26" data-name="Rectangle 26" width="5.981" height="0.997" transform="translate(1.501 15.699)" fill="#d7deed"/>
        <path id="Path_106" data-name="Path 106" d="M2677.4,2201.392a1,1,0,1,1-1,1A1,1,0,0,1,2677.4,2201.392Z" transform="translate(-2676.159 -2197.145)" fill="#6499f3"/>
        <path id="Path_107" data-name="Path 107" d="M2703.761,2250.483a3.243,3.243,0,0,1-3.239-3.24v-2.009a2,2,0,0,1-1.745-1.978v-.5h-1.993v.5a1.994,1.994,0,0,1-1.744,1.979v2.008a3.24,3.24,0,1,1-6.479,0v-6.665a3.056,3.056,0,0,1,3.053-3.053h3.925a.249.249,0,0,1,0,.5h-3.925a2.557,2.557,0,0,0-2.554,2.554v6.666a2.741,2.741,0,1,0,5.482,0V2245a.249.249,0,0,1,.249-.249,1.495,1.495,0,0,0,1.5-1.5v-.748a.249.249,0,0,1,.249-.249h2.492a.249.249,0,0,1,.249.249v.748a1.5,1.5,0,0,0,1.5,1.5.249.249,0,0,1,.249.249v2.243a2.741,2.741,0,1,0,5.482,0v-6.666a2.557,2.557,0,0,0-2.554-2.554h-3.924a.249.249,0,1,1,0-.5h3.924a3.056,3.056,0,0,1,3.053,3.053v6.665a3.238,3.238,0,0,1-3.24,3.24Z" transform="translate(-2687.31 -2230.298)"/>
        <path id="Path_108" data-name="Path 108" d="M2710.714,2293.917a1,1,0,1,1,1-1A1,1,0,0,1,2710.714,2293.917Zm0-1.495a.5.5,0,1,0,.5.5A.5.5,0,0,0,2710.714,2292.423Z" transform="translate(-2706.721 -2280.212)"/>
        <path id="Path_109" data-name="Path 109" d="M2740.936,2293.917a1,1,0,1,1,1-1A1,1,0,0,1,2740.936,2293.917Zm0-1.495a.5.5,0,1,0,.5.5A.5.5,0,0,0,2740.936,2292.423Z" transform="translate(-2734.451 -2280.212)"/>
        <path id="Path_110" data-name="Path 110" d="M2710.714,2263.694a1,1,0,1,1,1-1A1,1,0,0,1,2710.714,2263.694Zm0-1.5a.5.5,0,1,0,.5.5A.5.5,0,0,0,2710.714,2262.2Z" transform="translate(-2706.721 -2252.481)"/>
        <path id="Path_111" data-name="Path 111" d="M2740.936,2263.694a1,1,0,1,1,1-1A1,1,0,0,1,2740.936,2263.694Zm0-1.5a.5.5,0,1,0,.5.5A.5.5,0,0,0,2740.936,2262.2Z" transform="translate(-2734.451 -2252.481)"/>
        <path id="Path_112" data-name="Path 112" d="M2847.833,2265.937a.825.825,0,0,1-.824-.824v-.469h-.47a.824.824,0,0,1,0-1.649h.47v-.469a.824.824,0,1,1,1.648,0v.469h.469a.824.824,0,1,1,0,1.649h-.469v.469a.824.824,0,0,1-.824.824Zm-1.294-2.444a.326.326,0,0,0-.326.326.326.326,0,0,0,.326.326h.719a.249.249,0,0,1,.249.249v.719a.326.326,0,1,0,.652,0v-.719a.249.249,0,0,1,.249-.249h.719a.326.326,0,0,0,0-.652h-.719a.249.249,0,0,1-.25-.249v-.718a.326.326,0,0,0-.652,0v.718a.249.249,0,0,1-.249.249Z" transform="translate(-2831.506 -2252.481)"/>
        <path id="Path_113" data-name="Path 113" d="M2694.792,2349.843h-5.98a.25.25,0,0,1,0-.5h5.98a.25.25,0,1,1,0,.5Z" transform="translate(-2687.311 -2332.897)"/>
        <path id="Path_114" data-name="Path 114" d="M2839.856,2349.843h-5.98a.25.25,0,0,1,0-.5h5.98a.25.25,0,0,1,0,.5Z" transform="translate(-2820.414 -2332.897)"/>
        <path id="Path_115" data-name="Path 115" d="M2694.792,2337.754h-5.98a.249.249,0,1,1,0-.5h5.98a.249.249,0,1,1,0,.5Z" transform="translate(-2687.311 -2321.806)"/>
        <path id="Path_116" data-name="Path 116" d="M2839.856,2337.754h-5.98a.249.249,0,1,1,0-.5h5.98a.249.249,0,1,1,0,.5Z" transform="translate(-2820.414 -2321.806)"/>
        <path id="Path_117" data-name="Path 117" d="M2774.9,2239.518h-4.485a.249.249,0,0,1-.25-.249v-1.495a.249.249,0,0,1,.25-.249h1.495a.249.249,0,0,1,0,.5h-1.246v1h3.987v-1H2773.4a.249.249,0,0,1,0-.5h1.5a.249.249,0,0,1,.249.249v1.495A.249.249,0,0,1,2774.9,2239.518Z" transform="translate(-2762.181 -2230.298)"/>
        <path id="Path_118" data-name="Path 118" d="M2790.037,2221.384h-1.5a.25.25,0,0,1-.249-.249v-.748a1,1,0,0,1,1-1,1,1,0,0,1,1,1v.748A.25.25,0,0,1,2790.037,2221.384Zm-1.246-.5h1v-.5a.5.5,0,0,0-.5-.5.5.5,0,0,0-.5.5v.5Z" transform="translate(-2778.818 -2213.659)"/>
        <path id="Path_119" data-name="Path 119" d="M2717.193,2156.112a.249.249,0,0,1-.249-.25v-.947a1.547,1.547,0,0,0-1.545-1.544h-3.937a1.745,1.745,0,0,1,0-3.489h14.2a.249.249,0,1,1,0,.5h-14.2a1.246,1.246,0,0,0,0,2.492h3.937a2.046,2.046,0,0,1,2.043,2.043v.947A.25.25,0,0,1,2717.193,2156.112Z" transform="translate(-2706.721 -2149.882)"/>
        <path id="Path_120" data-name="Path 120" d="M2892.792,2180.571a1.744,1.744,0,1,1,1.745-1.744A1.746,1.746,0,0,1,2892.792,2180.571Zm0-2.99a1.246,1.246,0,1,0,1.246,1.246A1.247,1.247,0,0,0,2892.792,2177.58Z" transform="translate(-2873.101 -2174.839)"/>
        <path id="Path_121" data-name="Path 121" d="M2674.631,2200.862a1.246,1.246,0,1,1,1.246-1.246A1.247,1.247,0,0,1,2674.631,2200.862Zm0-1.994a.748.748,0,1,0,.748.747A.748.748,0,0,0,2674.631,2198.869Z" transform="translate(-2673.385 -2194.372)"/>
      </g>
    </g>
  </g>
</svg>
