<svg xmlns="http://www.w3.org/2000/svg" xmlns:xlink="http://www.w3.org/1999/xlink" width="35" height="35" viewBox="0 0 35 35">
  <defs>
    <clipPath id="clip-path">
      <rect id="icon_mask" width="35" height="35" transform="translate(0 -2)" fill="#fff"/>
    </clipPath>
  </defs>
  <g id="icon" transform="translate(0 2)" clip-path="url(#clip-path)">
    <g id="icon-2" data-name="icon" transform="translate(2.114 2.354)">
      <g id="icon-3" data-name="icon" transform="translate(-61.194 -136.463)">
        <g id="Group_10" data-name="Group 10" transform="translate(64.652 140.78)">
          <g id="Group_9" data-name="Group 9">
            <line id="Line_23" data-name="Line 23" x2="23.986" transform="translate(-0.072 0.829)" fill="none" stroke="#454545" stroke-linecap="round" stroke-width="2"/>
            <line id="Line_24" data-name="Line 24" x2="23.986" transform="translate(-0.072 8.829)" fill="none" stroke="#454545" stroke-linecap="round" stroke-width="2"/>
            <line id="Line_25" data-name="Line 25" x2="23.986" transform="translate(-0.072 16.829)" fill="none" stroke="#454545" stroke-linecap="round" stroke-width="2"/>
          </g>
        </g>
        <path id="Path_36525" data-name="Path 36525" d="M70.774,141.834a3.193,3.193,0,1,1-3.193,3.193h0A3.193,3.193,0,0,1,70.774,141.834Z" transform="translate(-0.168 -3.225)" fill="#fa4300" stroke="#454545" stroke-width="2"/>
        <path id="Path_36526" data-name="Path 36526" d="M75.475,145.559a3.166,3.166,0,1,1-3.166,3.166h0A3.166,3.166,0,0,1,75.475,145.559Z" transform="translate(6.484 0.884)" fill="#68ca44" stroke="#454545" stroke-width="2"/>
        <path id="Path_36527" data-name="Path 36527" d="M70.773,149.273a3.191,3.191,0,1,1-3.191,3.192h0A3.192,3.192,0,0,1,70.773,149.273Z" transform="translate(-0.165 4.922)" fill="#6499f3" stroke="#454545" stroke-width="2"/>
      </g>
    </g>
  </g>
</svg>
