<svg xmlns="http://www.w3.org/2000/svg" xmlns:xlink="http://www.w3.org/1999/xlink" width="30" height="30" viewBox="0 0 30 30">
  <defs>
    <clipPath id="clip-path">
      <rect id="icon_mask" width="30" height="30" fill="#fff"/>
    </clipPath>
  </defs>
  <g id="icon" clip-path="url(#clip-path)">
    <g id="icon-2" data-name="icon" transform="translate(2.114 2.354)">
      <g id="icon-3" data-name="icon" transform="translate(-1552.95 -892.559)">
        <path id="Path_55" data-name="Path 55" d="M1638.459,1031.12a1.027,1.027,0,1,1-1.026,1.027A1.027,1.027,0,0,1,1638.459,1031.12Z" transform="translate(-80.825 -133.845)" fill="#fcd884"/>
        <path id="Path_56" data-name="Path 56" d="M2072.247,1534.308a1.027,1.027,0,1,1-1.026,1.027A1.027,1.027,0,0,1,2072.247,1534.308Z" transform="translate(-501.781 -622.148)" fill="#f95948"/>
        <path id="Path_57" data-name="Path 57" d="M2210.8,1291.392a.77.77,0,1,1-.77.77A.77.77,0,0,1,2210.8,1291.392Z" transform="translate(-636.484 -386.418)" fill="#57606f"/>
        <path id="Path_58" data-name="Path 58" d="M2014.143,1080.03l-.021.14-4.513,4.513a4.565,4.565,0,0,0-1.6-1.6l4.513-4.513.139-.021a1.143,1.143,0,0,0,.272.432l.781.781A1.143,1.143,0,0,0,2014.143,1080.03Z" transform="translate(-440.436 -179.867)" fill="#57606f"/>
        <path id="Path_59" data-name="Path 59" d="M1774.212,1233.422l-7.118,7.118-.057.057-1.6-1.6.057-.057,7.118-7.118h0a4.567,4.567,0,0,1,1.6,1.6Z" transform="translate(-205.039 -328.606)" fill="#57606f"/>
        <path id="Path_60" data-name="Path 60" d="M2167.83,960.881a1.149,1.149,0,0,1,0,1.626l-1.984,1.984a1.148,1.148,0,0,1-1.625,0l-.781-.781a1.149,1.149,0,0,1,0-1.626l.391-.391,1.2-1.2.391-.391a1.15,1.15,0,0,1,1.626,0Z" transform="translate(-590.946 -64.599)" fill="#fcd884"/>
        <path id="Path_61" data-name="Path 61" d="M1609.149,1219.993l.057-.058,7.118-7.118a4.54,4.54,0,0,1-2.253,6.53,5.671,5.671,0,0,1-5.142,5.434h-1.052a5.672,5.672,0,0,1,.312-11.315,4.54,4.54,0,0,1,6.53-2.252l-7.118,7.118-.057.057Z" transform="translate(-47.151 -308.001)" fill="#fcd884"/>
        <path id="Path_62" data-name="Path 62" d="M1595.026,1211.692c-.189,0-.377-.009-.565-.026a6.082,6.082,0,0,1,.072-12.119,4.95,4.95,0,0,1,7-2.219l.014.008a4.948,4.948,0,0,1,.984,7.762,4.909,4.909,0,0,1-1.447,1,6.08,6.08,0,0,1-5.5,5.564C1595.4,1211.683,1595.215,1211.692,1595.026,1211.692Zm4.013-14.222a4.133,4.133,0,0,0-3.845,2.622.41.41,0,0,1-.367.26,5.262,5.262,0,1,0,5.456,5.456.411.411,0,0,1,.261-.367,4.129,4.129,0,0,0,2.049-5.939,4.159,4.159,0,0,0-1.447-1.452l-.013-.007A4.106,4.106,0,0,0,1599.039,1197.469Z" transform="translate(-33.774 -294.477)"/>
        <path id="Path_63" data-name="Path 63" d="M2151.6,951.767h0a1.555,1.555,0,0,1-.517-.088,1.537,1.537,0,0,1-.587-.369l-.781-.781a1.553,1.553,0,0,1-.369-.587,1.571,1.571,0,0,1,.369-1.619l1.984-1.984a1.56,1.56,0,0,1,2.206,0l.781.781a1.56,1.56,0,0,1,0,2.206l-1.984,1.984A1.548,1.548,0,0,1,2151.6,951.767Zm1.2-5.064a.734.734,0,0,0-.522.216l-1.984,1.984a.743.743,0,0,0-.175.767.731.731,0,0,0,.175.278l.781.781a.739.739,0,0,0,1.045,0l1.984-1.984a.738.738,0,0,0,0-1.045l-.781-.781A.734.734,0,0,0,2152.8,946.7Z" transform="translate(-577.509 -51.129)"/>
        <path id="Path_64" data-name="Path 64" d="M1753.891,1077.829a.41.41,0,0,1-.29-.7l7.118-7.118.013-.012,4.5-4.5a.41.41,0,0,1,.581.58l-4.513,4.514-.013.012-7.106,7.106A.409.409,0,0,1,1753.891,1077.829Z" transform="translate(-193.441 -167.088)"/>
        <path id="Path_65" data-name="Path 65" d="M1808.129,1132.049a.411.411,0,0,1-.291-.7l11.632-11.631a.411.411,0,0,1,.581.581l-11.632,11.632A.41.41,0,0,1,1808.129,1132.049Z" transform="translate(-246.074 -219.704)"/>
        <path id="Path_66" data-name="Path 66" d="M2162.245,918.646a.411.411,0,0,1-.291-.12l-1.6-1.6a.411.411,0,0,1,.581-.581l1.6,1.6a.411.411,0,0,1-.291.7Z" transform="translate(-588.157 -22.344)"/>
        <path id="Path_67" data-name="Path 67" d="M2121.575,959.318a.41.41,0,0,1-.291-.12l-1.6-1.6a.411.411,0,1,1,.581-.581l1.6,1.6a.411.411,0,0,1-.29.7Z" transform="translate(-548.69 -61.813)"/>
        <path id="Path_68" data-name="Path 68" d="M1715.693,1425.049a.409.409,0,0,1-.29-.12l-3.728-3.728a.411.411,0,0,1,.581-.581l3.727,3.727a.411.411,0,0,1-.29.7Z" transform="translate(-152.756 -511.706)"/>
        <path id="Path_69" data-name="Path 69" d="M1667.754,1472.991a.41.41,0,0,1-.29-.12l-3.727-3.727a.411.411,0,0,1,.581-.581l3.727,3.727a.411.411,0,0,1-.29.7Z" transform="translate(-106.235 -558.231)"/>
        <path id="Path_70" data-name="Path 70" d="M2009.183,895.718a.411.411,0,0,1-.411-.411v-1.7a.411.411,0,1,1,.821,0v1.7A.411.411,0,0,1,2009.183,895.718Z" transform="translate(-441.18)"/>
        <path id="Path_71" data-name="Path 71" d="M1951.659,953.239a.411.411,0,0,1-.411-.411v-1.7a.411.411,0,0,1,.821,0v1.7A.411.411,0,0,1,1951.659,953.239Z" transform="translate(-385.358 -55.82)"/>
        <path id="Path_72" data-name="Path 72" d="M1624.986,1020.11a1.437,1.437,0,1,1,1.438-1.437A1.439,1.439,0,0,1,1624.986,1020.11Zm0-2.053a.616.616,0,1,0,.616.616A.617.617,0,0,0,1624.986,1018.057Z" transform="translate(-67.353 -120.372)"/>
        <path id="Path_73" data-name="Path 73" d="M2058.774,1523.305a1.437,1.437,0,1,1,1.437-1.437A1.439,1.439,0,0,1,2058.774,1523.305Zm0-2.053a.616.616,0,1,0,.616.616A.616.616,0,0,0,2058.774,1521.252Z" transform="translate(-488.309 -608.681)"/>
        <path id="Path_74" data-name="Path 74" d="M2197.328,1279.873a1.181,1.181,0,1,1,1.181-1.181A1.182,1.182,0,0,1,2197.328,1279.873Zm0-1.54a.359.359,0,1,0,.359.359A.359.359,0,0,0,2197.328,1278.333Z" transform="translate(-623.013 -372.948)"/>
        <path id="Path_75" data-name="Path 75" d="M1575.085,1677.412h-20.531a.411.411,0,0,1,0-.821h20.531a.411.411,0,1,1,0,.821Z" transform="translate(0 -760.221)"/>
      </g>
    </g>
  </g>
</svg>
