<svg xmlns="http://www.w3.org/2000/svg" xmlns:xlink="http://www.w3.org/1999/xlink" width="30" height="30" viewBox="0 0 30 30">
  <defs>
    <clipPath id="clip-path">
      <rect id="icon_mask" width="30" height="30" fill="#fff"/>
    </clipPath>
  </defs>
  <g id="icon" clip-path="url(#clip-path)">
    <g id="icon-2" data-name="icon" transform="translate(2.114 2.354)">
      <g id="icon-3" data-name="icon" transform="translate(-4776.971 -1364.719)">
        <g id="Group_14" data-name="Group 14" transform="translate(4795.034 1367.093)">
          <path id="Path_76" data-name="Path 76" d="M4972.281,1375.948l-1.639.428-1.149,1.244-.428-1.638-1.245-1.15,1.639-.428,1.149-1.245.428,1.639Z" transform="translate(-4967.82 -1373.161)" fill="#4dabf4"/>
        </g>
        <path id="Path_77" data-name="Path 77" d="M4788.047,1545.679l-1.639.428-1.149,1.245-.428-1.638-1.244-1.149,1.638-.428,1.149-1.244.428,1.639Z" transform="translate(-6.068 -159.661)" fill="#4dabf4"/>
        <g id="Group_15" data-name="Group 15" transform="translate(4782.032 1370.913)">
          <path id="Path_78" data-name="Path 78" d="M4846.33,1418.882l-3.816,3.72.9,5.253-4.717-2.48-4.717,2.48.9-5.253-3.817-3.72,5.274-.766,2.359-4.779,2.358,4.779Z" transform="translate(-4831.064 -1413.337)" fill="#fbc41a"/>
        </g>
        <g id="Group_16" data-name="Group 16" transform="translate(4781.395 1370.275)">
          <path id="Path_79" data-name="Path 79" d="M4837.344,1422.424a.637.637,0,0,1-.3-.073l-4.42-2.324-4.42,2.324a.637.637,0,0,1-.925-.672l.844-4.923-3.577-3.486a.638.638,0,0,1,.354-1.088l4.942-.718,2.21-4.478a.638.638,0,0,1,.572-.355h0a.638.638,0,0,1,.572.355l2.21,4.478,4.942.718a.637.637,0,0,1,.354,1.088l-3.576,3.486.844,4.923a.638.638,0,0,1-.628.745Zm-10.979-9.166,2.892,2.818a.638.638,0,0,1,.184.564l-.683,3.98,3.574-1.879a.638.638,0,0,1,.593,0l3.574,1.879-.683-3.98a.637.637,0,0,1,.184-.564l2.891-2.818-4-.581a.637.637,0,0,1-.48-.349l-1.787-3.62-1.787,3.62a.637.637,0,0,1-.48.349Z" transform="translate(-4824.357 -1406.631)"/>
        </g>
        <g id="Group_17" data-name="Group 17" transform="translate(4794.397 1366.455)">
          <path id="Path_80" data-name="Path 80" d="M4963.424,1372.191a.639.639,0,0,1-.617-.477l-.381-1.458-1.107-1.023a.637.637,0,0,1,.271-1.085l1.458-.381,1.023-1.107a.637.637,0,0,1,1.085.271l.38,1.458,1.108,1.023a.638.638,0,0,1-.271,1.085l-1.458.381-1.023,1.107A.637.637,0,0,1,4963.424,1372.191Zm-.384-3.1.389.359a.639.639,0,0,1,.184.307l.133.511.359-.388a.637.637,0,0,1,.307-.184l.511-.133-.388-.359a.638.638,0,0,1-.184-.307l-.133-.511-.359.389a.641.641,0,0,1-.307.184Z" transform="translate(-4961.114 -1366.455)"/>
        </g>
        <g id="Group_18" data-name="Group 18" transform="translate(4776.881 1382.592)">
          <path id="Path_81" data-name="Path 81" d="M4779.19,1541.92a.639.639,0,0,1-.617-.477l-.381-1.458-1.107-1.022a.638.638,0,0,1,.271-1.085l1.458-.381,1.022-1.107a.638.638,0,0,1,1.085.271l.381,1.458,1.107,1.022a.638.638,0,0,1-.271,1.085l-1.458.381-1.022,1.107A.637.637,0,0,1,4779.19,1541.92Zm-.384-3.1.389.358a.638.638,0,0,1,.184.307l.133.51.358-.388a.64.64,0,0,1,.308-.185l.511-.133-.388-.358a.638.638,0,0,1-.184-.307l-.134-.511-.358.388a.638.638,0,0,1-.307.184Z" transform="translate(-4776.881 -1536.184)"/>
        </g>
        <path id="Path_82" data-name="Path 82" d="M4780.238,1407.906h-.638v-.637a.637.637,0,1,0-1.275,0v.637h-.638a.638.638,0,0,0,0,1.275h.638v.638a.637.637,0,1,0,1.275,0v-.638h.638a.638.638,0,1,0,0-1.275Z" transform="translate(-0.154 -36.356)"/>
        <path id="Path_83" data-name="Path 83" d="M5009.526,1507.537h-.637v-.637a.637.637,0,1,0-1.275,0v.637h-.638a.637.637,0,1,0,0,1.275h.638v.638a.637.637,0,1,0,1.275,0v-.638h.637a.637.637,0,1,0,0-1.275Z" transform="translate(-207.642 -126.515)"/>
      </g>
    </g>
  </g>
</svg>
