<svg xmlns="http://www.w3.org/2000/svg" xmlns:xlink="http://www.w3.org/1999/xlink" width="30" height="30" viewBox="0 0 30 30">
  <defs>
    <clipPath id="clip-path">
      <rect id="icon_mask" width="30" height="30" fill="#fff"/>
    </clipPath>
  </defs>
  <g id="icon" clip-path="url(#clip-path)">
    <g id="icon-2" data-name="icon" transform="translate(2.114 2.354)">
      <g id="icon-3" data-name="icon" transform="translate(-5220.065 -359.62)">
        <path id="Path_43" data-name="Path 43" d="M5383.821,365.456a3.721,3.721,0,1,1-3.721,3.721A3.721,3.721,0,0,1,5383.821,365.456Z" transform="translate(-145.803 -4.739)" fill="#3f4751"/>
        <path id="Path_44" data-name="Path 44" d="M5462.876,621.841a1.672,1.672,0,1,1-1.672,1.672A1.672,1.672,0,0,1,5462.876,621.841Z" transform="translate(-220.399 -240.552)" fill="#3256c1"/>
        <path id="Path_45" data-name="Path 45" d="M5227.137,413.468a2.09,2.09,0,1,1-2.09,2.09A2.09,2.09,0,0,1,5227.137,413.468Z" transform="translate(-3.19 -48.898)" fill="#3256c1"/>
        <path id="Path_46" data-name="Path 46" d="M5407.516,391.218a1.654,1.654,0,1,1-1.654,1.654A1.653,1.653,0,0,1,5407.516,391.218Z" transform="translate(-169.497 -28.434)" fill="#a9d4d8"/>
        <path id="Path_47" data-name="Path 47" d="M5237.414,463.4a3.622,3.622,0,0,1,4.936-.654l.632-7.541a2.5,2.5,0,0,0,3.006-.116l.652,9.44a2.574,2.574,0,0,1-2.562,2.824h-.637a3.622,3.622,0,0,1-6.027.609,4.737,4.737,0,1,1,0-4.562Z" transform="translate(-6.389 -87.182)" fill="#ffd396"/>
        <path id="Path_48" data-name="Path 48" d="M5402.782,390.205a2.067,2.067,0,1,1,2.067-2.067A2.069,2.069,0,0,1,5402.782,390.205Zm0-3.308a1.24,1.24,0,1,0,1.24,1.24A1.243,1.243,0,0,0,5402.782,386.9Z" transform="translate(-164.763 -23.7)"/>
        <path id="Path_49" data-name="Path 49" d="M5230.071,467.506a5.015,5.015,0,0,1-5.014-5.137,5.016,5.016,0,0,1,9.41-2.295.279.279,0,0,1-.488.269,4.459,4.459,0,1,0-7.1,5.262,4.459,4.459,0,0,0,7.1-.969.279.279,0,0,1,.461-.041,3.343,3.343,0,0,0,5.563-.562.279.279,0,0,1,.247-.15h.637a2.3,2.3,0,0,0,2.285-2.519s0-.005,0-.008l-.651-9.44a.278.278,0,1,1,.555-.038l.652,9.436a2.853,2.853,0,0,1-2.84,3.126h-.472a3.9,3.9,0,0,1-6.147.8A5.02,5.02,0,0,1,5230.071,467.506Z" transform="translate(-3.198 -83.988)"/>
        <path id="Path_50" data-name="Path 50" d="M5336.118,461.814a.279.279,0,0,1-.216-.454,3.9,3.9,0,0,1,4.912-.961l.594-7.083a.279.279,0,1,1,.556.046l-.632,7.542a.279.279,0,0,1-.441.2,3.342,3.342,0,0,0-4.556.6A.28.28,0,0,1,5336.118,461.814Z" transform="translate(-105.093 -85.315)"/>
        <path id="Path_51" data-name="Path 51" d="M5379.088,368.573a4.134,4.134,0,1,1,2.606-.925A4.108,4.108,0,0,1,5379.088,368.573Zm0-7.442a3.308,3.308,0,0,0,0,6.615,3.308,3.308,0,0,0,3.307-3.308A3.31,3.31,0,0,0,5379.088,361.131Z" transform="translate(-141.07)"/>
        <path id="Path_52" data-name="Path 52" d="M5336.57,556.93a.278.278,0,0,1-.271-.213,4.4,4.4,0,0,0-.427-1.1.279.279,0,0,1,.488-.269,5,5,0,0,1,.48,1.235.279.279,0,0,1-.205.337A.27.27,0,0,1,5336.57,556.93Z" transform="translate(-105.093 -179.263)"/>
        <path id="Path_53" data-name="Path 53" d="M5223.946,414.728a2.369,2.369,0,1,1,2.369-2.368A2.371,2.371,0,0,1,5223.946,414.728Zm0-4.18a1.811,1.811,0,1,0,1.811,1.811A1.813,1.813,0,0,0,5223.946,410.548Z" transform="translate(0 -45.7)"/>
        <path id="Path_54" data-name="Path 54" d="M5459.685,622.268a1.951,1.951,0,1,1,1.95-1.951A1.953,1.953,0,0,1,5459.685,622.268Zm0-3.344a1.393,1.393,0,1,0,1.393,1.393A1.394,1.394,0,0,0,5459.685,618.924Z" transform="translate(-217.207 -237.357)"/>
      </g>
    </g>
  </g>
</svg>
